<svg width="47" height="48" viewBox="0 0 47 48" fill="none" xmlns="http://www.w3.org/2000/svg">
<path d="M22.9282 5.39849C23.2718 5.15904 23.7282 5.15904 24.0718 5.39849L28.3635 8.3895C28.5317 8.50676 28.732 8.56945 28.937 8.56908L34.2428 8.55943C34.6724 8.55865 35.0545 8.83233 35.192 9.23933L36.8034 14.0084C36.8723 14.2123 37.0051 14.3885 37.1821 14.5109L41.4231 17.443C41.7913 17.6976 41.9455 18.1659 41.8005 18.5894L40.1858 23.3067C40.114 23.5166 40.114 23.7445 40.1858 23.9544L41.8005 28.6717C41.9455 29.0953 41.7913 29.5635 41.4231 29.8181L37.1821 32.7503C37.0051 32.8726 36.8723 33.0488 36.8034 33.2527L35.192 38.0218C35.0545 38.4288 34.6724 38.7025 34.2428 38.7017L28.937 38.6921C28.732 38.6917 28.5317 38.7544 28.3635 38.8717L24.0718 41.8627C23.7282 42.1021 23.2718 42.1021 22.9282 41.8627L18.6365 38.8717C18.4683 38.7544 18.268 38.6917 18.063 38.6921L12.7572 38.7017C12.3276 38.7025 11.9455 38.4288 11.808 38.0218L10.1966 33.2527C10.1277 33.0488 9.99494 32.8726 9.81794 32.7503L5.5769 29.8181C5.20868 29.5635 5.05451 29.0953 5.19948 28.6717L6.81415 23.9544C6.886 23.7445 6.886 23.5166 6.81415 23.3067L5.19948 18.5894C5.05451 18.1659 5.20868 17.6976 5.5769 17.443L9.81794 14.5109C9.99494 14.3885 10.1277 14.2123 10.1966 14.0084L11.808 9.23933C11.9455 8.83233 12.3276 8.55865 12.7572 8.55943L18.063 8.56908C18.268 8.56945 18.4683 8.50676 18.6365 8.38949L22.9282 5.39849Z" stroke="#636363" stroke-width="2" stroke-linecap="round"/>
<circle cx="23.3757" cy="23.6305" r="9.92994" stroke="#636363" stroke-width="2"/>
<path d="M26.5272 21.2561L22.174 25.6093L20.1952 23.6306" stroke="#636363" stroke-width="1.5" stroke-linecap="round" stroke-linejoin="round"/>
</svg>
