<svg width="48" height="48" viewBox="0 0 48 48" fill="none" xmlns="http://www.w3.org/2000/svg">
<g clip-path="url(#clip0)">
<path d="M27.9353 14.4024C27.5564 12.5366 25.915 11.1963 24.0111 11.1982C22.6855 11.1982 21.611 10.1237 21.611 8.7981C21.611 7.47253 22.6855 6.39798 24.0111 6.39798C25.3367 6.39798 26.4112 7.47253 26.4112 8.7981H28.0113C28.0089 6.8979 26.6723 5.26062 24.8111 4.8779V3.19781H23.2111V4.8779C21.046 5.31752 19.6473 7.42903 20.0869 9.59414C20.4658 11.4599 22.1072 12.8002 24.0111 12.7983C25.3367 12.7983 26.4112 13.8729 26.4112 15.1984C26.4112 16.524 25.3367 17.5985 24.0111 17.5985C22.6855 17.5985 21.611 16.524 21.611 15.1984H20.0109C20.0133 17.0986 21.3499 18.7359 23.2111 19.1186V20.7987H24.8111V19.1186C26.9761 18.6789 28.3749 16.5674 27.9353 14.4024Z" fill="#636363"/>
<path d="M36.0116 11.9982C36.0103 5.37037 30.6363 -0.0013998 24.0086 2.73618e-07C17.3809 0.00140034 12.0091 5.37527 12.0104 12.0031C12.0116 17.7048 16.0244 22.6184 21.6109 23.7588V31.9992H20.8108C20.6149 31.9994 20.4259 32.0714 20.2796 32.2016L13.0793 38.6019C12.9084 38.7536 12.8106 38.9712 12.8104 39.1996V47.2C12.8104 47.6418 13.1687 48 13.6105 48H28.8112C30.131 48.0058 31.2057 46.9407 31.2116 45.6209C31.2143 45.0214 30.9914 44.4427 30.5873 43.9998C31.4194 43.0954 31.4194 41.7041 30.5873 40.7997C31.4194 39.8952 31.4194 38.5039 30.5873 37.5995C31.4768 36.6244 31.4074 35.113 30.4323 34.2235C29.9894 33.8195 29.4108 33.5967 28.8112 33.5993H27.864C27.622 32.9217 27.0887 32.3884 26.4111 32.1464V23.7588C31.9952 22.611 36.0051 17.6989 36.0116 11.9982ZM24.011 38.7994V36.7994H22.4109V38.7994C22.4123 39.7112 22.8584 40.5649 23.6062 41.0868C23.0035 41.9948 23.098 43.1969 23.835 43.9997C23.2331 44.6441 23.0471 45.5735 23.355 46.3998H14.4105V39.5587L21.1149 33.5992H25.6111C26.0529 33.5992 26.4111 33.9574 26.4111 34.3992V38.7994C26.4111 39.4622 25.8738 39.9995 25.2111 39.9995C24.5483 39.9995 24.011 39.4623 24.011 38.7994ZM23.211 31.9991V23.9579C23.4766 23.9755 23.7406 23.9987 24.011 23.9987C24.2814 23.9987 24.5454 23.9755 24.811 23.9579V31.9991H23.211ZM28.8112 46.3998H25.6111C25.1693 46.3998 24.811 46.0416 24.811 45.5998C24.811 45.158 25.1693 44.7998 25.6111 44.7998H28.8112C29.2531 44.7998 29.6113 45.158 29.6113 45.5998C29.6113 46.0416 29.2532 46.3998 28.8112 46.3998ZM28.0112 35.1993H28.8112C29.2531 35.1993 29.6113 35.5575 29.6113 35.9993C29.6113 36.4411 29.2531 36.7994 28.8112 36.7994H28.0112V35.1993ZM28.0112 38.7994V38.3994H28.8112C29.2531 38.3994 29.6113 38.7576 29.6113 39.1995C29.6113 39.6413 29.2531 39.9995 28.8112 39.9995H27.7304C27.9129 39.6257 28.0089 39.2156 28.0112 38.7994ZM28.8112 41.5996C29.2531 41.5996 29.6113 41.9578 29.6113 42.3996C29.6113 42.8415 29.2531 43.1997 28.8112 43.1997H25.6111C25.1693 43.1997 24.811 42.8415 24.811 42.3996C24.811 41.9578 25.1693 41.5996 25.6111 41.5996H28.8112ZM24.011 22.3986C18.2697 22.392 13.6171 17.7394 13.6105 11.9981C13.6105 6.25401 18.2669 1.59758 24.011 1.59758C29.7551 1.59758 34.4115 6.25401 34.4115 11.9981C34.4115 17.7422 29.7551 22.3986 24.011 22.3986Z" fill="#636363"/>
<path d="M7.21018 31.1991C6.76836 31.1991 6.41014 30.8408 6.41014 30.399C6.41014 29.9572 6.76836 29.599 7.21018 29.599C7.652 29.599 8.01022 29.9572 8.01022 30.399H9.6103C9.6061 29.3856 8.96577 28.4839 8.01022 28.1461V27.1989H6.41014V28.1461C5.16278 28.5854 4.50774 29.9528 4.94717 31.2002C5.28518 32.1598 6.19273 32.8011 7.21018 32.7991C7.652 32.7991 8.01022 33.1574 8.01022 33.5992C8.01022 34.041 7.652 34.3992 7.21018 34.3992C6.76836 34.3992 6.41014 34.041 6.41014 33.5992H4.81006C4.81426 34.6126 5.45459 35.5143 6.41014 35.8521V36.7993H8.01022V35.8521C9.25758 35.4128 9.91261 34.0454 9.47319 32.798C9.13527 31.8385 8.22763 31.1972 7.21018 31.1991Z" fill="#636363"/>
<path d="M7.21273 24.7961C3.23604 24.7947 0.0111738 28.0172 0.00977371 31.9939C0.00847365 35.662 2.76471 38.7447 6.41009 39.1523V47.9999H8.01017V39.1523C11.6518 38.7414 14.4055 35.6638 14.4105 31.9991C14.412 28.0225 11.1894 24.7976 7.21273 24.7961ZM7.21013 37.5994C4.11718 37.5994 1.60985 35.0921 1.60985 31.9991C1.60985 28.9061 4.11718 26.3988 7.21013 26.3988C10.3031 26.3988 12.8104 28.9061 12.8104 31.9991C12.8065 35.0905 10.3015 37.5955 7.21013 37.5994Z" fill="#636363"/>
<path d="M40.8118 31.1991C40.37 31.1991 40.0118 30.8408 40.0118 30.399C40.0118 29.9572 40.37 29.599 40.8118 29.599C41.2536 29.599 41.6119 29.9572 41.6119 30.399H43.2119C43.2077 29.3856 42.5674 28.4839 41.6119 28.1461V27.1989H40.0118V28.1461C38.7644 28.5854 38.1094 29.9528 38.5488 31.2002C38.8868 32.1598 39.7944 32.8011 40.8118 32.7991C41.2536 32.7991 41.6119 33.1574 41.6119 33.5992C41.6119 34.041 41.2536 34.3992 40.8118 34.3992C40.37 34.3992 40.0118 34.041 40.0118 33.5992H38.4117C38.4159 34.6126 39.0562 35.5143 40.0118 35.8521V36.7993H41.6119V35.8521C42.8592 35.4128 43.5143 34.0454 43.0749 32.798C42.7369 31.8385 41.8293 31.1972 40.8118 31.1991Z" fill="#636363"/>
<path d="M47.9423 31.1763C47.5253 27.5506 44.4614 24.8103 40.8118 24.7988C36.8352 24.8114 33.6217 28.0452 33.6343 32.0218C33.6458 35.6714 36.3861 38.7353 40.0118 39.1523V47.9999H41.6119V39.1523C45.5625 38.6979 48.3967 35.1269 47.9423 31.1763ZM40.8118 37.5993C37.7189 37.5993 35.2115 35.092 35.2115 31.999C35.2115 28.9061 37.7189 26.3987 40.8118 26.3987C43.9048 26.3987 46.4121 28.9061 46.4121 31.999C46.4082 35.0904 43.9032 37.5954 40.8118 37.5993Z" fill="#636363"/>
</g>
<defs>
<clipPath id="clip0">
<rect width="48" height="48" fill="white"/>
</clipPath>
</defs>
</svg>
