<svg width="37" height="37" viewBox="0 0 37 37" fill="none" xmlns="http://www.w3.org/2000/svg">
<path d="M22.7714 10.7013C22.7713 9.85656 22.5207 9.03077 22.0513 8.3284C21.5818 7.62604 20.9147 7.07864 20.1342 6.75543C19.3536 6.43222 18.4948 6.34772 17.6663 6.5126C16.8377 6.67748 16.0767 7.08434 15.4794 7.68174C14.882 8.27914 14.4753 9.04025 14.3105 9.86882C14.1457 10.6974 14.2304 11.5562 14.5537 12.3367C14.877 13.1172 15.4245 13.7842 16.1269 14.2536C16.8293 14.7229 17.6552 14.9734 18.4999 14.9734C19.6325 14.972 20.7182 14.5215 21.519 13.7206C22.3198 12.9197 22.7702 11.8339 22.7714 10.7013ZM15.2402 10.7013C15.2403 10.0567 15.4316 9.42647 15.7898 8.89048C16.1481 8.3545 16.6572 7.93677 17.2529 7.69014C17.8485 7.4435 18.504 7.37903 19.1362 7.50488C19.7685 7.63072 20.3493 7.94123 20.8051 8.39714C21.261 8.85304 21.5714 9.43388 21.6971 10.0662C21.8228 10.6985 21.7583 11.3539 21.5115 11.9495C21.2648 12.5451 20.847 13.0542 20.3109 13.4124C19.7749 13.7705 19.1446 13.9617 18.4999 13.9617C17.6356 13.9607 16.807 13.6169 16.1958 13.0056C15.5847 12.3944 15.241 11.5657 15.2402 10.7013Z" fill="#636363"/>
<path d="M35.6495 34.9965L31.5257 24.1856C31.4891 24.0898 31.4244 24.0075 31.34 23.9494C31.2556 23.8912 31.1556 23.8601 31.0531 23.8601H23.2484C23.2961 23.7823 23.3435 23.7069 23.3912 23.6288C26.3943 18.6569 27.9055 14.3077 27.8838 10.7037C27.8842 8.21485 26.896 5.8278 25.1364 4.06763C23.3768 2.30747 20.9901 1.31838 18.5013 1.31796C16.0125 1.31754 13.6254 2.30582 11.8652 4.06538C10.1051 5.82495 9.11598 8.21167 9.11556 10.7005C9.09388 14.3077 10.6051 18.6575 13.6082 23.6288C13.6559 23.7077 13.7033 23.7832 13.751 23.8601H5.94628C5.84382 23.8601 5.74378 23.8912 5.65939 23.9494C5.575 24.0075 5.51024 24.0898 5.47366 24.1856L1.35048 34.9965C1.3211 35.0731 1.31081 35.1557 1.3205 35.2371C1.33019 35.3186 1.35958 35.3965 1.40611 35.464C1.45264 35.5316 1.51492 35.5868 1.58757 35.6249C1.66022 35.663 1.74106 35.6829 1.82309 35.6827H35.1769C35.2589 35.6829 35.3397 35.663 35.4124 35.6249C35.485 35.5868 35.5473 35.5316 35.5938 35.464C35.6404 35.3965 35.6698 35.3186 35.6794 35.2371C35.6891 35.1557 35.6789 35.0731 35.6495 34.9965ZM10.1276 10.7014C10.1278 9.60188 10.3445 8.51321 10.7654 7.49749C11.1864 6.48178 11.8032 5.55892 12.5808 4.7816C13.3584 4.00429 14.2815 3.38774 15.2973 2.96716C16.3132 2.54658 17.4019 2.33021 18.5014 2.3304C19.6009 2.33059 20.6896 2.54734 21.7053 2.96827C22.721 3.3892 23.6439 4.00606 24.4212 4.78365C25.1985 5.56123 25.815 6.4843 26.2356 7.50016C26.6562 8.51602 26.8726 9.60477 26.8724 10.7043C26.9157 17.8898 20.1979 26.7521 18.5 28.8773C16.802 26.753 10.0839 17.893 10.1276 10.7014ZM18.1147 30.0047C18.1621 30.0605 18.2212 30.1053 18.2877 30.1361C18.3543 30.1668 18.4267 30.1828 18.5 30.1828C18.5733 30.1828 18.6457 30.1668 18.7122 30.1361C18.7788 30.1053 18.8378 30.0605 18.8853 30.0047C20.2284 28.3685 21.4735 26.6544 22.6142 24.8712H30.7042L31.3517 26.5695L15.5426 32.192L9.90759 24.8703H14.3852C15.526 26.6538 16.7713 28.3683 18.1147 30.0047ZM15.5249 33.2711H15.5278L24.9591 29.9179L28.6172 34.671H11.5914L15.5249 33.2711ZM6.29518 24.8703H8.6308L14.5398 32.5484L8.5727 34.6707H2.55731L6.29518 24.8703ZM29.8951 34.671L25.9613 29.5598L31.7136 27.5141L34.4432 34.671H29.8951Z" fill="#636363"/>
</svg>
