<svg width="38" height="38" viewBox="0 0 38 38" fill="none" xmlns="http://www.w3.org/2000/svg">
<path d="M33.25 10.6875V33.25C33.25 34.5098 32.7496 35.718 31.8588 36.6088C30.968 37.4996 29.7598 38 28.5 38H9.5C8.24022 38 7.03204 37.4996 6.14124 36.6088C5.25044 35.718 4.75 34.5098 4.75 33.25V4.75C4.75 3.49022 5.25044 2.28204 6.14124 1.39124C7.03204 0.500445 8.24022 0 9.5 0L22.5625 0L33.25 10.6875ZM26.125 10.6875C25.1802 10.6875 24.274 10.3122 23.6059 9.64407C22.9378 8.97597 22.5625 8.06983 22.5625 7.125V2.375H9.5C8.87011 2.375 8.26602 2.62522 7.82062 3.07062C7.37522 3.51602 7.125 4.12011 7.125 4.75V33.25C7.125 33.8799 7.37522 34.484 7.82062 34.9294C8.26602 35.3748 8.87011 35.625 9.5 35.625H28.5C29.1299 35.625 29.734 35.3748 30.1794 34.9294C30.6248 34.484 30.875 33.8799 30.875 33.25V10.6875H26.125Z" fill="#636363"/>
</svg>
